<?xml version="1.0" encoding="utf-8"?>
<!-- Generator: Adobe Illustrator 24.1.2, SVG Export Plug-In . SVG Version: 6.00 Build 0)  -->
<svg version="1.1" id="Layer_1" xmlns="http://www.w3.org/2000/svg" xmlns:xlink="http://www.w3.org/1999/xlink" x="0px" y="0px"
	 viewBox="0 0 768 768" style="enable-background:new 0 0 768 768;" xml:space="preserve">
<style type="text/css">
	.st0{fill-rule:evenodd;clip-rule:evenodd;}
</style>
<g>
	<path class="st0" d="M508.2,198.9L383.3,304.4c-1.5,1.3-2.3,3.1-2.3,5v73.1c5.8-2.3,11.7-4.1,17.8-5.4c19.7-4.4,42.6-4,64.5,6
		c22.4,10.2,41.1,29.3,53.8,57.2c17.9,39.4,39.9,46.5,50.6,45.7c10-0.8,23.9-9.4,26.9-35.5C627.7,353.6,589.1,252.9,508.2,198.9z"/>
	<path class="st0" d="M387,160.5c-96.1-1.9-182.5,58-214.3,148.7C132,425.2,193,552.1,309,592.8c3.1,1.1,6.4,2.1,9.7,3.1V309.4
		c0-21.5,9.3-41.8,25.3-55.3l100.4-84.7C425.8,163.9,406.5,160.9,387,160.5z"/>
	<path class="st0" d="M384,15.7C180.6,15.7,15.7,180.6,15.7,384S180.6,752.3,384,752.3S752.3,587.4,752.3,384S587.4,15.7,384,15.7z
		 M572.3,551.3c-45,3.4-87.2-28.1-112.2-83.1c-6.9-15.2-15.2-21.9-22.1-25.1c-7.4-3.4-16.4-4.1-26.2-1.9c-9,2-17.5,6.1-24.7,11.9
		c-2,1.7-4.6,3.3-6.2,4.3v148l-0.6,64.1c-60.4-1.7-124.6-22.5-172.5-59.3C83.6,512.2,62.3,331.9,160.4,207.6
		c95.7-121.3,270.3-144.9,394.8-53.5c98.4,74.3,138.2,203,99.1,319.8C644.1,517,613.2,548.1,572.3,551.3z"/>
</g>
</svg>
