<?xml version="1.0" encoding="utf-8"?>
<!-- Generator: Adobe Illustrator 24.1.2, SVG Export Plug-In . SVG Version: 6.00 Build 0)  -->
<svg version="1.1" id="Layer_1" xmlns="http://www.w3.org/2000/svg" xmlns:xlink="http://www.w3.org/1999/xlink" x="0px" y="0px"
	 viewBox="0 0 1629 632" style="enable-background:new 0 0 1629 632;" xml:space="preserve">
<style type="text/css">
	.st0{fill:#567BFF;}
	.st1{fill:#FFFFFF;}
</style>
<path class="st0" d="M316,0L316,0c174.5,0,316,141.5,316,316l0,0c0,174.5-141.5,316-316,316l0,0C141.5,632,0,490.5,0,316l0,0
	C0,141.5,141.5,0,316,0z"/>
<path class="st1" d="M289.5,171l-50,48H166v-48H289.5z"/>
<path class="st1" d="M290,145l-50.2,15H166v-15H290z"/>
<path class="st1" d="M464,173v44c0,1.1-0.9,2-2,2H359c-1.1,0-2-0.9-2-2v-44c0-1.1,0.9-2,2-2h103C463.1,171,464,171.9,464,173z"/>
<path class="st1" d="M464,147v11c0,1.1-0.9,2-2,2H168c-1.1,0-2-0.9-2-2v-11c0-1.1,0.9-2,2-2h294C463.1,145,464,145.9,464,147z"/>
<path class="st1" d="M397,303v17c0,1.7-1.3,3-3,3H236c-1.7,0-3-1.3-3-3v-17c0-1.7,1.3-3,3-3h158C395.7,300,397,301.3,397,303z"/>
<path class="st1" d="M397,337v17c0,1.7-1.3,3-3,3H236c-1.7,0-3-1.3-3-3v-17c0-1.7,1.3-3,3-3h158C395.7,334,397,335.3,397,337z"/>
<path class="st1" d="M288,219l61-48v315h-61V219z"/>
<path class="st1" d="M254,218.4c-1.8,0-2.7-2.2-1.4-3.5l45.8-43.4c0.4-0.4,0.9-0.5,1.4-0.5H347c1.1,0,2,0.9,2,2v44c0,1.1-0.9,2-2,2
	L254,218.4z"/>
<g>
	<path class="st1" d="M741.3,431.4c-4.5,0-8-1.3-10.5-3.8c-2.5-2.6-3.7-6.1-3.7-10.7V233.1c0-4.7,1.3-8.3,3.8-10.8
		c2.6-2.5,6-3.7,10.4-3.7c4.1,0,7.3,0.7,9.6,2.2s4.4,4.1,6.4,7.8l77.5,144.7h-9.2l77.2-144.7c2-3.7,4-6.4,6.2-7.8
		c2.2-1.5,5.3-2.2,9.5-2.2c4.3,0,7.7,1.2,10.1,3.7c2.4,2.5,3.6,6.1,3.6,10.8v183.8c0,4.5-1.1,8.1-3.4,10.7
		c-2.3,2.6-5.7,3.8-10.2,3.8s-8-1.3-10.4-3.8c-2.4-2.6-3.6-6.1-3.6-10.7V264.2h6.5l-68.7,127c-1.6,3-3.3,5.1-5,6.5
		c-1.8,1.4-4.2,2.1-7.4,2.1s-5.7-0.7-7.7-2.2s-3.8-3.6-5.3-6.4l-69.3-127.3h7.1v153c0,4.5-1.1,8.1-3.4,10.7
		C749.2,430.1,745.8,431.4,741.3,431.4z"/>
	<path class="st1" d="M1054.8,432c-19.7,0-36.9-4.4-51.6-13.2c-14.7-8.8-26-21.2-34-37.3c-8-16.1-12-35-12-56.7
		c0-16.4,2.3-31.1,6.8-44.2s11-24.4,19.5-33.7c8.5-9.4,18.7-16.5,30.8-21.5c12-4.9,25.5-7.4,40.5-7.4c19.9,0,37.2,4.3,51.8,13
		c14.6,8.7,25.9,21,33.9,37s12,34.8,12,56.5c0,16.4-2.3,31.2-6.8,44.4c-4.5,13.2-11.1,24.6-19.7,34c-8.6,9.5-18.9,16.7-30.9,21.6
		C1083,429.5,1069.6,432,1054.8,432z M1054.8,405.3c13.8,0,25.6-3.2,35.4-9.5s17.3-15.5,22.5-27.5s7.8-26.5,7.8-43.5
		c0-25.5-5.7-45.2-17.2-59.2c-11.4-14-27.6-21-48.5-21c-13.8,0-25.6,3.1-35.4,9.3s-17.3,15.3-22.5,27.4c-5.2,12-7.8,26.5-7.8,43.5
		c0,25.3,5.8,45,17.3,59.2C1018,398.2,1034.1,405.3,1054.8,405.3z"/>
	<path class="st1" d="M1193.1,431.4c-4.5,0-8.1-1.3-10.7-3.8c-2.6-2.6-3.8-6.2-3.8-11V234c0-4.9,1.2-8.7,3.7-11.4s5.8-4,9.9-4
		c3.6,0,6.3,0.6,8.1,1.9c1.9,1.3,4.1,3.6,6.7,7l122,160.7h-7.4V233.1c0-4.5,1.2-8.1,3.7-10.7c2.5-2.6,6-3.8,10.5-3.8
		c4.7,0,8.3,1.3,10.7,3.8c2.4,2.6,3.6,6.1,3.6,10.7v183.8c0,4.5-1.1,8.1-3.4,10.7s-5.3,3.8-9,3.8c-3.6,0-6.5-0.7-8.7-2.1
		c-2.3-1.4-4.7-3.7-7.3-7.1l-121.3-160.4h6.8v154.8c0,4.7-1.2,8.4-3.6,11C1201.1,430.1,1197.7,431.4,1193.1,431.4z"/>
	<path class="st1" d="M1463.8,431.4c-4.9,0-8.7-1.4-11.4-4.1c-2.7-2.8-4-6.6-4-11.5V246.4h-62.7c-4.1,0-7.4-1.1-9.8-3.4
		c-2.4-2.3-3.6-5.5-3.6-9.6s1.2-7.3,3.6-9.5s5.6-3.3,9.8-3.3h156c4.3,0,7.7,1.1,10.1,3.3s3.6,5.3,3.6,9.5c0,4.1-1.2,7.4-3.6,9.6
		c-2.4,2.3-5.7,3.4-10.1,3.4H1479v169.3c0,4.9-1.2,8.8-3.7,11.5C1472.7,430,1468.9,431.4,1463.8,431.4z"/>
</g>
</svg>
