<svg version="1.1" width="128" height="128" xmlns="http://www.w3.org/2000/svg" xmlns:xlink="http://www.w3.org/1999/xlink" x="0px" y="0px" fill="white" viewBox="0 0 632 632" style="enable-background:new 0 0 632 632;" xml:space="preserve">
                            <path class="st0" d="M459.3,618.7H177.7c-57.6,0-104.5-46.9-104.5-104.5V122.8c0-57.6,46.9-104.5,104.5-104.5h281.6
                            c57.6,0,104.5,46.9,104.5,104.5v391.4C563.8,571.8,516.9,618.7,459.3,618.7z M177.7,23.3c-54.9,0-99.5,44.6-99.5,99.5v391.4
                            c0,54.9,44.6,99.5,99.5,99.5h281.6c54.9,0,99.5-44.6,99.5-99.5V122.8c0-54.9-44.6-99.5-99.5-99.5H177.7z"></path>
                            <g>
                                <path class="st0" d="M288.4,524.3c-4.8,0-8.9,1.1-12.3,3.2c-3.4,2.2-6,5.3-7.8,9.5c-1.8,4.2-2.7,9.2-2.7,15.1c0,8.8,2,15.7,6,20.6
                                c4,4.9,9.6,7.4,16.9,7.4c4.8,0,8.9-1.1,12.3-3.3c3.4-2.2,6-5.4,7.8-9.6s2.7-9.2,2.7-15.1c0-8.9-2-15.7-6-20.6
                                C301.3,526.7,295.7,524.3,288.4,524.3z"></path>
                                <path class="st0" d="M75.7,488.4c0,2.5,0,4.4,0,5.9c0-0.1,0,1,0,4.1c0,3.6,0,10.2,0,21.2v0c0,53.1,43.4,96.5,96.5,96.5h292.5
                                c53.1,0,96.5-43.4,96.5-96.5v0v-31.2H75.7z M245.7,584.3c0,1.6-0.4,2.8-1.2,3.7c-0.8,0.9-2,1.3-3.6,1.3c-1.6,0-2.8-0.5-3.6-1.3
                                c-0.8-0.9-1.3-2.1-1.3-3.7v-49l-21.7,40c-0.6,1-1.1,1.8-1.7,2.3c-0.6,0.5-1.5,0.7-2.6,0.7c-1.1,0-2-0.2-2.7-0.8
                                c-0.7-0.5-1.3-1.3-1.8-2.2l-21.7-39.8v48.7c0,1.6-0.4,2.8-1.2,3.7c-0.8,0.9-2,1.3-3.5,1.3c-1.6,0-2.8-0.5-3.7-1.3
                                c-0.9-0.9-1.3-2.1-1.3-3.7v-64c0-1.6,0.5-2.9,1.3-3.8c0.9-0.9,2.1-1.3,3.6-1.3c1.4,0,2.5,0.2,3.3,0.8c0.8,0.5,1.5,1.4,2.2,2.7
                                l25.4,47.4l25.3-47.4c0.7-1.3,1.4-2.2,2.2-2.7c0.8-0.5,1.8-0.8,3.3-0.8c1.5,0,2.7,0.4,3.5,1.3c0.8,0.9,1.3,2.1,1.3,3.8V584.3z
                                 M320,567.6c-1.6,4.6-3.9,8.6-6.9,11.8c-3,3.3-6.6,5.8-10.8,7.5c-4.2,1.7-8.9,2.6-14,2.6c-6.9,0-12.8-1.5-18-4.6
                                c-5.1-3.1-9.1-7.4-11.8-13c-2.8-5.6-4.2-12.2-4.2-19.7c0-5.7,0.8-10.8,2.4-15.4c1.6-4.6,3.8-8.5,6.8-11.7c3-3.3,6.5-5.7,10.7-7.5
                                c4.2-1.7,8.9-2.6,14.1-2.6c6.9,0,13,1.5,18,4.5c5.1,3,9,7.3,11.8,12.9c2.8,5.6,4.2,12.1,4.2,19.7C322.4,557.8,321.6,563,320,567.6z
                                 M391.2,584.3c0,1.6-0.4,2.8-1.2,3.7c-0.8,0.9-1.8,1.3-3.1,1.3c-1.3,0-2.3-0.2-3-0.7c-0.8-0.5-1.6-1.3-2.5-2.5l-39.9-52.7v50.8
                                c0,1.6-0.4,2.9-1.3,3.8c-0.9,0.9-2.1,1.3-3.7,1.3c-1.6,0-2.8-0.5-3.7-1.3c-0.9-0.9-1.3-2.2-1.3-3.8v-63.6c0-1.7,0.4-3,1.3-4
                                c0.9-0.9,2-1.4,3.4-1.4c1.3,0,2.2,0.2,2.8,0.7c0.7,0.5,1.4,1.3,2.3,2.4l39.9,52.6v-50.6c0-1.6,0.4-2.8,1.3-3.7
                                c0.9-0.9,2.1-1.3,3.7-1.3c1.6,0,2.9,0.5,3.7,1.3c0.8,0.9,1.3,2.1,1.3,3.7V584.3z M461.5,523.7c-0.8,0.8-2,1.2-3.5,1.2h-21.8v59
                                c0,1.7-0.4,3.1-1.3,4c-0.9,1-2.2,1.5-4,1.5c-1.7,0-3-0.5-4-1.4c-0.9-1-1.4-2.3-1.4-4v-59h-21.8c-1.4,0-2.6-0.4-3.4-1.2
                                c-0.8-0.8-1.3-1.9-1.3-3.3c0-1.4,0.4-2.5,1.3-3.3c0.8-0.8,2-1.1,3.4-1.1h54.3c1.5,0,2.7,0.4,3.5,1.1c0.8,0.8,1.3,1.8,1.3,3.3
                                C462.7,521.8,462.3,523,461.5,523.7z"></path>
                            </g>
                            <path class="st0" d="M471.9,109.3v46.3c0,1.2-0.9,2.1-2.1,2.1H361.5c-1.2,0-2.1-0.9-2.1-2.1v-46.3c0-1.2,0.9-2.1,2.1-2.1h108.4
                            C471,107.2,471.9,108.2,471.9,109.3z"></path>
                            <path class="st0" d="M471.9,82v11.6c0,1.2-0.9,2.1-2.1,2.1H160.5c-1.2,0-2.1-0.9-2.1-2.1V82c0-1.2,0.9-2.1,2.1-2.1h309.3
                            C471,79.9,471.9,80.8,471.9,82z"></path>
                            <path class="st0" d="M351,267.1v11.6h47.3c1.8,0,3.2,1.4,3.2,3.2v17.9c0,1.8-1.4,3.2-3.2,3.2H351v135.7h-64.2V302.9h-54.7
                            c-1.8,0-3.2-1.4-3.2-3.2v-17.9c0-1.8,1.4-3.2,3.2-3.2h54.7v-11.6h-54.7c-1.8,0-3.2-1.4-3.2-3.2v-17.9c0-1.8,1.4-3.2,3.2-3.2h54.7
                            v-85.2l0.5-0.4l-36.3-0.2c-1.9,0-2.8-2.3-1.5-3.7l48.2-45.7c0.4-0.4,0.9-0.5,1.5-0.5h49.7c0.5,0,1.1,0.2,1.4,0.5
                            c0.4,0.4,0.7,0.9,0.7,1.6v133.6h47.3c1.8,0,3.2,1.4,3.2,3.2V264c0,1.8-1.4,3.2-3.2,3.2H351z"></path>
                            <path class="st0" d="M286.8,108.7L286.8,108.7c-0.4,0.3-0.7,0.7-1.1,1.1l-0.2,0.2c-0.2,0.2-0.3,0.3-0.3,0.3l0,0l-48.5,46.6l0,0
                            c-0.1,0.1-0.2,0.2-0.3,0.3l0,0c-0.4,0.3-0.8,0.5-1.4,0.5h-76.6v-50.5h127.7C287.5,107.2,287.4,108.1,286.8,108.7z"></path>
                        </svg>